<mxfile host="app.diagrams.net" modified="2024-02-29T12:31:15.353Z" agent="Mozilla/5.0 (Windows NT 10.0; Win64; x64) AppleWebKit/537.36 (KHTML, like Gecko) Chrome/122.0.0.0 Safari/537.36" etag="GYlcKiYYiMBwIFQEYCkV" version="23.1.7" type="github">
  <diagram name="Page-1" id="_FV7jDgNu1mscSSbRAdy">
    <mxGraphModel dx="1114" dy="566" grid="1" gridSize="10" guides="1" tooltips="1" connect="1" arrows="1" fold="1" page="1" pageScale="1" pageWidth="2000" pageHeight="2000" math="0" shadow="0">
      <root>
        <mxCell id="0" />
        <mxCell id="1" parent="0" />
        <mxCell id="u8hlkJmMzOzF6-jQYkhg-8" style="edgeStyle=orthogonalEdgeStyle;rounded=0;orthogonalLoop=1;jettySize=auto;html=1;exitX=0.5;exitY=1;exitDx=0;exitDy=0;entryX=0.5;entryY=0;entryDx=0;entryDy=0;" edge="1" parent="1" source="u8hlkJmMzOzF6-jQYkhg-1" target="u8hlkJmMzOzF6-jQYkhg-2">
          <mxGeometry relative="1" as="geometry" />
        </mxCell>
        <mxCell id="u8hlkJmMzOzF6-jQYkhg-1" value="Save game" style="rounded=0;whiteSpace=wrap;html=1;" vertex="1" parent="1">
          <mxGeometry x="360" y="40" width="120" height="60" as="geometry" />
        </mxCell>
        <mxCell id="u8hlkJmMzOzF6-jQYkhg-9" style="edgeStyle=orthogonalEdgeStyle;rounded=0;orthogonalLoop=1;jettySize=auto;html=1;exitX=0.5;exitY=1;exitDx=0;exitDy=0;entryX=0.5;entryY=0;entryDx=0;entryDy=0;" edge="1" parent="1" source="u8hlkJmMzOzF6-jQYkhg-2" target="u8hlkJmMzOzF6-jQYkhg-3">
          <mxGeometry relative="1" as="geometry" />
        </mxCell>
        <mxCell id="u8hlkJmMzOzF6-jQYkhg-11" style="edgeStyle=orthogonalEdgeStyle;rounded=0;orthogonalLoop=1;jettySize=auto;html=1;exitX=0;exitY=0.5;exitDx=0;exitDy=0;entryX=0.5;entryY=0;entryDx=0;entryDy=0;" edge="1" parent="1" source="u8hlkJmMzOzF6-jQYkhg-2" target="u8hlkJmMzOzF6-jQYkhg-4">
          <mxGeometry relative="1" as="geometry" />
        </mxCell>
        <mxCell id="u8hlkJmMzOzF6-jQYkhg-12" style="edgeStyle=orthogonalEdgeStyle;rounded=0;orthogonalLoop=1;jettySize=auto;html=1;exitX=1;exitY=0.5;exitDx=0;exitDy=0;entryX=0.5;entryY=0;entryDx=0;entryDy=0;" edge="1" parent="1" source="u8hlkJmMzOzF6-jQYkhg-2" target="u8hlkJmMzOzF6-jQYkhg-5">
          <mxGeometry relative="1" as="geometry" />
        </mxCell>
        <mxCell id="u8hlkJmMzOzF6-jQYkhg-2" value="Call getter methods to write the game state to a text file." style="rounded=0;whiteSpace=wrap;html=1;" vertex="1" parent="1">
          <mxGeometry x="360" y="120" width="120" height="60" as="geometry" />
        </mxCell>
        <mxCell id="u8hlkJmMzOzF6-jQYkhg-3" value="For each enemy, call get_enemy_state()" style="rounded=0;whiteSpace=wrap;html=1;" vertex="1" parent="1">
          <mxGeometry x="360" y="200" width="120" height="60" as="geometry" />
        </mxCell>
        <mxCell id="u8hlkJmMzOzF6-jQYkhg-4" value="Call get_player_state()" style="rounded=0;whiteSpace=wrap;html=1;" vertex="1" parent="1">
          <mxGeometry x="220" y="200" width="120" height="60" as="geometry" />
        </mxCell>
        <mxCell id="u8hlkJmMzOzF6-jQYkhg-5" value="Call get_level_state()" style="rounded=0;whiteSpace=wrap;html=1;" vertex="1" parent="1">
          <mxGeometry x="500" y="200" width="120" height="60" as="geometry" />
        </mxCell>
        <mxCell id="u8hlkJmMzOzF6-jQYkhg-7" style="edgeStyle=orthogonalEdgeStyle;rounded=0;orthogonalLoop=1;jettySize=auto;html=1;exitX=0.5;exitY=1;exitDx=0;exitDy=0;" edge="1" parent="1" source="u8hlkJmMzOzF6-jQYkhg-3" target="u8hlkJmMzOzF6-jQYkhg-3">
          <mxGeometry relative="1" as="geometry" />
        </mxCell>
      </root>
    </mxGraphModel>
  </diagram>
</mxfile>
